HIERARCHY
ROOT Elbow
{
	OFFSET	0.00	0.00	0.00
	CHANNELS 6 Xposition Yposition Zposition Zrotation Xrotation Yrotation
	JOINT L_Wrist
	{
		OFFSET	 0.208349	 0.000000	 0.000000
		CHANNELS 3 Zrotation Xrotation Yrotation
		JOINT L_index_Proximal
		{
			OFFSET	 0.093499	 0.010637	-0.002084
			CHANNELS 3 Zrotation Xrotation Yrotation
			JOINT L_index_b
			{
				OFFSET	 0.033152	 0.000000	 0.000000
				CHANNELS 3 Zrotation Xrotation Yrotation
				JOINT L_index_c
				{
					OFFSET	 0.018651	 0.000000	 0.000000
					CHANNELS 3 Zrotation Xrotation Yrotation
					End Site
					{
						OFFSET	 0.018651	 0.000000	 0.000000
					}
				}
			}
		}
		JOINT L_middle_Proximal
		{
			OFFSET	 0.090632	-0.006115	-0.003750
			CHANNELS 3 Zrotation Xrotation Yrotation
			JOINT L_middle_b
			{
				OFFSET	 0.037195	 0.000000	 0.000000
				CHANNELS 3 Zrotation Xrotation Yrotation
				JOINT L_middle_c
				{
					OFFSET	 0.021943	 0.000000	 0.000000
					CHANNELS 3 Zrotation Xrotation Yrotation
					End Site
					{
						OFFSET	 0.021943	 0.000000	 0.000000
					}
				}
			}
		}
		JOINT L_pinky_Proximal
		{
			OFFSET	 0.074015	-0.035449	-0.000417
			CHANNELS 3 Zrotation Xrotation Yrotation
			JOINT L_pinky_b
			{
				OFFSET	 0.027285	 0.000000	 0.000000
				CHANNELS 3 Zrotation Xrotation Yrotation
				JOINT L_pinky_c
				{
					OFFSET	 0.015093	 0.000000	 0.000000
					CHANNELS 3 Zrotation Xrotation Yrotation
					End Site
					{
						OFFSET	 0.015093	 0.000000	 0.000000
					}
				}
			}
		}
		JOINT L_ring_Proximal
		{
			OFFSET	 0.082801	-0.021859	-0.003750
			CHANNELS 3 Zrotation Xrotation Yrotation
			JOINT L_ring_b
			{
				OFFSET	 0.034478	 0.000000	 0.000000
				CHANNELS 3 Zrotation Xrotation Yrotation
				JOINT L_ring_c
				{
					OFFSET	 0.021377	 0.000000	 0.000000
					CHANNELS 3 Zrotation Xrotation Yrotation
					End Site
					{
						OFFSET	 0.021377	 0.000000	 0.000000
					}
				}
			}
		}
		JOINT L_thumb_Proximal
		{
			OFFSET	 0.030306	 0.018528	 0.004584
			CHANNELS 3 Zrotation Xrotation Yrotation
			JOINT L_thumb_a
			{
				OFFSET	 0.038520	 0.000000	 0.000000
				CHANNELS 3 Zrotation Xrotation Yrotation
				JOINT L_thumb_b
				{
					OFFSET	 0.026310	 0.000000	 0.000000
					CHANNELS 3 Zrotation Xrotation Yrotation
					End Site
					{
						OFFSET	 0.026310	 0.000000	 0.000000
					}
				}
			}
		}
	}
}
MOTION
Frames:    21
Frame Time: 0.01666667
-1.334563	-0.747610	 0.736848	-32.179730	 14.271880	-158.900300	-12.844220	 5.790233	 35.106060	 9.834201	-2.661224	-20.720350	-1.829124	 0.347726	-21.526350	-1.451017	 0.148770	-11.707640	-8.184523	-8.794473	-11.944580	 1.828110	-0.392220	-24.216260	 0.789404	-0.101643	-14.674090	-29.482380	-19.463700	-7.123619	 0.922888	-0.209901	-25.625930	 3.900833	-0.843322	-24.389280	-19.855260	-11.252100	-11.987790	 0.196761	-0.042293	-24.263080	 1.986685	-0.302396	-17.307210	 39.323120	 60.903590	-25.672380	-3.447792	 0.351769	-11.647350	 2.089098	-0.401967	-21.779480
-1.334704	-0.747850	 0.736918	-32.212180	 14.214290	-158.882000	-12.739360	 5.792736	 35.123730	 10.045630	-2.679342	-20.331800	-1.974551	 0.374343	-21.469110	-1.691662	 0.176430	-11.908890	-8.093769	-8.810778	-11.978160	 1.721731	-0.370510	-24.287900	 0.760301	-0.097929	-14.678900	-29.527400	-19.459340	-7.026458	 0.939964	-0.213126	-25.549210	 3.939414	-0.847190	-24.265060	-19.779970	-11.265450	-11.921120	 0.210413	-0.045110	-24.196950	 1.983068	-0.301618	-17.294850	 39.262700	 60.916050	-25.618550	-3.410941	 0.344934	-11.545670	 2.239052	-0.425696	-21.527930
-1.334949	-0.748105	 0.737596	-32.279050	 14.133390	-158.748500	-12.728200	 5.795733	 35.144500	 10.405090	-2.699421	-19.575270	-1.954134	 0.359683	-20.859230	-1.769491	 0.184220	-11.888130	-7.603480	-8.902279	-11.980190	 1.487668	-0.318921	-24.197850	 0.647941	-0.083166	-14.628570	-29.618080	-19.454690	-6.964868	 0.852575	-0.192119	-25.397660	 3.947496	-0.849661	-24.285160	-19.646260	-11.294380	-11.758120	 0.161425	-0.034489	-24.117980	 1.932264	-0.295135	-17.366870	 39.236060	 60.914750	-25.638900	-3.440378	 0.342925	-11.381480	 2.594795	-0.479587	-20.940300
-1.335089	-0.748391	 0.738107	-32.327860	 14.054470	-158.696900	-12.668690	 5.798434	 35.163550	 11.027260	-2.770796	-18.769550	-2.116695	 0.378613	-20.287340	-1.922816	 0.195850	-11.635610	-7.220971	-8.970603	-12.028340	 1.246278	-0.262852	-23.815070	 0.767265	-0.095871	-14.244160	-29.648260	-19.453310	-6.750771	 0.967154	-0.213328	-24.875950	 3.958551	-0.833293	-23.765550	-19.479920	-11.322930	-11.608350	 0.237048	-0.050183	-23.900300	 1.986276	-0.299271	-17.134400	 39.308080	 60.873070	-25.956420	-3.395157	 0.335226	-11.274790	 2.574670	-0.465418	-20.489740
-1.335096	-0.748464	 0.738690	-32.372100	 13.892120	-158.627700	-12.632030	 5.788144	 35.091330	 11.383290	-2.744459	-17.696600	-2.193044	 0.372537	-19.285040	-1.992215	 0.195657	-11.220150	-7.027686	-9.011173	-12.142230	 1.074310	-0.220058	-23.148430	 1.023008	-0.123723	-13.795690	-29.731320	-19.457410	-6.283016	 1.099236	-0.234715	-24.107790	 4.041471	-0.818372	-22.886180	-19.388790	-11.343040	-11.499320	 0.210279	-0.043491	-23.361970	 1.978335	-0.290122	-16.683900	 39.130280	 60.919360	-25.694440	-3.280996	 0.316324	-11.011000	 2.997376	-0.526553	-19.924040
-1.335083	-0.748382	 0.739215	-32.403310	 13.703090	-158.569000	-12.610390	 5.780579	 35.038440	 12.303860	-2.791775	-16.229910	-2.120011	 0.339502	-18.206660	-2.143101	 0.199863	-10.666380	-7.078089	-9.000368	-12.026670	 1.054928	-0.208769	-22.387720	 0.786888	-0.089546	-12.978740	-29.781430	-19.461950	-5.822677	 1.434024	-0.299443	-23.591350	 4.206734	-0.829328	-22.295550	-19.177230	-11.381410	-11.266270	 0.452718	-0.090680	-22.643950	 2.378151	-0.335232	-16.046770	 39.227410	 60.896210	-25.792750	-3.136557	 0.288072	-10.493320	 3.306961	-0.550419	-18.894230
-1.335341	-0.748193	 0.739706	-32.490400	 13.590220	-158.463700	-12.512230	 5.790671	 35.109210	 12.953600	-2.677190	-14.122310	-1.977103	 0.303784	-17.471020	-2.179816	 0.196009	-10.280020	-7.420437	-8.932117	-11.855800	 0.734380	-0.140274	-21.630280	 0.933915	-0.104440	-12.770520	-29.771360	-19.461670	-5.696248	 1.771050	-0.365436	-23.316000	 4.478079	-0.868892	-21.950890	-18.932010	-11.420060	-11.277510	 0.466766	-0.092239	-22.348710	 2.497138	-0.340926	-15.544680	 39.561140	 60.816610	-26.192470	-2.999669	 0.266275	-10.143840	 3.169984	-0.505129	-18.101060
-1.335576	-0.747831	 0.740122	-32.599650	 13.568930	-158.359800	-12.452120	 5.800129	 35.175430	 13.656050	-2.512979	-11.727210	-1.692657	 0.248042	-16.669200	-2.196024	 0.187886	-9.785605	-8.063963	-8.811454	-11.599110	 0.568180	-0.105260	-21.006770	 1.160158	-0.126767	-12.482460	-29.669200	-19.480310	-5.183813	 2.244256	-0.453435	-22.844300	 4.828894	-0.918500	-21.527680	-18.677010	-11.461710	-10.964650	 0.606531	-0.116055	-21.655950	 2.762905	-0.362957	-14.965470	 40.191570	 60.651420	-27.022600	-2.771653	 0.239356	-9.871274	 3.097048	-0.451007	-16.558610
-1.335788	-0.747463	 0.740658	-32.712920	 13.598490	-158.272700	-12.401040	 5.827927	 35.370510	 14.028170	-2.305135	-9.606135	-1.408488	 0.199687	-16.127560	-2.252586	 0.182897	-9.288280	-8.866415	-8.665095	-11.056670	 0.785281	-0.140136	-20.263810	 1.551649	-0.160891	-11.856670	-29.656970	-19.487630	-4.743083	 2.443120	-0.491998	-22.769800	 4.841787	-0.915319	-21.398310	-18.364630	-11.509860	-10.174250	 0.857070	-0.158082	-20.897810	 3.067009	-0.381811	-14.189340	 41.368720	 60.374310	-28.124160	-2.426003	 0.198391	-9.351661	 2.629090	-0.381142	-16.491570
-1.335937	-0.747351	 0.741159	-32.916760	 13.881460	-158.186600	-12.309940	 5.885305	 35.774720	 14.264020	-2.140133	-8.110250	-1.098730	 0.153161	-15.856630	-2.279138	 0.180863	-9.075415	-9.796139	-8.497393	-10.852720	 1.081924	-0.190081	-19.940320	 1.836961	-0.184724	-11.490580	-29.567570	-19.494510	-4.323559	 2.565488	-0.511430	-22.545320	 4.821775	-0.894304	-21.001750	-18.227170	-11.518300	-9.182568	 0.969213	-0.174160	-20.373600	 3.132168	-0.371330	-13.517160	 43.196790	 59.994110	-29.251920	-2.331223	 0.188031	-9.221292	 2.414280	-0.359395	-16.933450
-1.335816	-0.747446	 0.741816	-32.898900	 13.858960	-158.126000	-12.476250	 5.956062	 36.276250	 14.548900	-2.071441	-7.174184	-0.824708	 0.113110	-15.607430	-2.444020	 0.192191	-8.994948	-10.415660	-8.409298	-10.228180	 1.342566	-0.231773	-19.599820	 2.033211	-0.202315	-11.368680	-29.585200	-19.507800	-4.067730	 2.224718	-0.458830	-23.302680	 4.338572	-0.823115	-21.474950	-17.671920	-11.606700	-8.283054	 1.029045	-0.184751	-20.358110	 3.270983	-0.380739	-13.275240	 45.827200	 59.344150	-31.061070	-2.215013	 0.171986	-8.881804	 2.045789	-0.311549	-17.315470
-1.335393	-0.747427	 0.742570	-32.835250	 13.712610	-158.079600	-12.680320	 6.017475	 36.714230	 14.775600	-1.966355	-6.130571	-0.587370	 0.076985	-14.923740	-2.503137	 0.190741	-8.716037	-11.139600	-8.297985	-9.982729	 1.334611	-0.227044	-19.313060	 2.085992	-0.204485	-11.198500	-29.633300	-19.520870	-3.398254	 1.983157	-0.414079	-23.581750	 3.691566	-0.702267	-21.530310	-17.188560	-11.672940	-7.644021	 0.930901	-0.165553	-20.160870	 3.483147	-0.390115	-12.777910	 48.404180	 58.621760	-33.000780	-2.200537	 0.167439	-8.703551	 1.898168	-0.286027	-17.132200
-1.335280	-0.747384	 0.743202	-32.831200	 13.694090	-158.134300	-12.936520	 6.086221	 37.207630	 15.032720	-1.877538	-5.254521	-0.505794	 0.064924	-14.625270	-2.479080	 0.186365	-8.596504	-11.277410	-8.279843	-9.441706	 1.760614	-0.297323	-19.178290	 2.385542	-0.232201	-11.122160	-29.619200	-19.546030	-1.908326	 1.707598	-0.347479	-22.990770	 2.909202	-0.524475	-20.414220	-16.432810	-11.754100	-6.619162	 1.065957	-0.188330	-20.042300	 3.503817	-0.376090	-12.245630	 51.518700	 57.788730	-34.599560	-1.988165	 0.146253	-8.414911	 1.757979	-0.270607	-17.505880
-1.334956	-0.746972	 0.743403	-33.003990	 14.143580	-158.241900	-12.852310	 6.173876	 37.841660	 15.132850	-1.703389	-4.032220	-0.383497	 0.047901	-14.220420	-2.438843	 0.182577	-8.560110	-11.651880	-8.213207	-8.785354	 1.963793	-0.329557	-19.055450	 2.750401	-0.266995	-11.093140	-29.570800	-19.567890	 0.120314	 1.464230	-0.280855	-21.695560	 2.382523	-0.402887	-19.164920	-15.809370	-11.786550	-5.459498	 0.957413	-0.165168	-19.557740	 3.687227	-0.370259	-11.462910	 54.486230	 56.856090	-36.449600	-1.799805	 0.133374	-8.471001	 1.870530	-0.288252	-17.520890
-1.334206	-0.746209	 0.743146	-33.328670	 14.947810	-158.366600	-12.661990	 6.259521	 38.466710	 15.339330	-1.620731	-3.358855	-0.311006	 0.037582	-13.773090	-2.396527	 0.176368	-8.416138	-11.659100	-8.209472	-8.268174	 2.288423	-0.380511	-18.883320	 3.069007	-0.294232	-10.952990	-29.576590	-19.593230	 2.041878	 1.184464	-0.212285	-20.305080	 1.883737	-0.300837	-18.115350	-14.921790	-11.839400	-4.154631	 0.895136	-0.149465	-18.935450	 3.488673	-0.333713	-10.915780	 57.316220	 55.719000	-38.787730	-1.839727	 0.133392	-8.297442	 2.217903	-0.338247	-17.339670
-1.333259	-0.745293	 0.742204	-33.849070	 16.383270	-158.591200	-12.204060	 6.331034	 38.993030	 14.167470	-1.410542	-2.871645	 0.060049	-0.006965	-13.623820	-1.796328	 0.137067	-8.712900	-11.110750	-8.271479	-7.925663	 2.594812	-0.428150	-18.737280	 3.555705	-0.346668	-11.139640	-29.004440	-19.628160	 4.477943	 0.833703	-0.139513	-18.956680	 1.926372	-0.282963	-16.705030	-14.551350	-11.815120	-2.981352	 0.243137	-0.038161	-17.667400	 2.678447	-0.235425	-10.018040	 60.268710	 54.372250	-41.280970	-1.573554	 0.113525	-8.249722	 1.933951	-0.292915	-17.217110
-1.332137	-0.744367	 0.741263	-34.325520	 17.701450	-158.810700	-11.857090	 6.390911	 39.436750	 13.166910	-1.361136	-3.265043	 0.227848	-0.028981	-14.380470	-1.466963	 0.117166	-9.141407	-9.658682	-8.486064	-7.945917	 2.901248	-0.494062	-19.335160	 3.491855	-0.340890	-11.148480	-28.393770	-19.659740	 6.236963	 0.080369	-0.013417	-18.448910	 1.721834	-0.242940	-16.054170	-14.830290	-11.756980	-1.928429	-0.485144	 0.072198	-16.978770	 2.298210	-0.198758	-9.875243	 62.529760	 53.413600	-42.440880	-1.266353	 0.092350	-8.332315	 2.046621	-0.325909	-18.112120
-1.331170	-0.743129	 0.739746	-34.974910	 19.687920	-159.052000	-11.472410	 6.462561	 39.971640	 12.485380	-1.283614	-3.385063	 0.555944	-0.071036	-14.570990	-1.176572	 0.097492	-9.470304	-8.430990	-8.648422	-8.523832	 2.644021	-0.460206	-19.750050	 3.389555	-0.331981	-11.185400	-27.819130	-19.650090	 7.835824	 0.116785	-0.018466	-18.020370	 0.666163	-0.093577	-15.898770	-15.045240	-11.666430	-0.331658	-1.200358	 0.169417	-16.088440	 2.242511	-0.184302	-9.399325	 64.780470	 52.206420	-44.208670	-1.270339	 0.101232	-9.100704	 1.737867	-0.301823	-19.730640
-1.329665	-0.741699	 0.738165	-35.648520	 22.006280	-159.254800	-11.269050	 6.510911	 40.334930	 11.523700	-1.167056	-3.312124	 0.707621	-0.092035	-14.810440	-0.916298	 0.079646	-9.945449	-7.335737	-8.820446	-9.259180	 2.352237	-0.414654	-19.996630	 3.373371	-0.342206	-11.585480	-27.215230	-19.641200	 9.224810	 0.456118	-0.071641	-17.881430	 0.934340	-0.125170	-15.264520	-15.100090	-11.616110	 1.007236	-1.654103	 0.221873	-15.277730	 1.614716	-0.137422	-9.696709	 66.551110	 51.280240	-45.271640	-1.560549	 0.141887	-10.387560	 1.795831	-0.351538	-22.168070
-1.328344	-0.740033	 0.736284	-36.404220	 24.326930	-159.441800	-10.935190	 6.574984	 40.819700	 11.481790	-1.243174	-4.091206	 0.440375	-0.059457	-15.350340	-1.109084	 0.098885	-10.190230	-7.221149	-8.854175	-10.118610	 1.781856	-0.319665	-20.342680	 3.054603	-0.315186	-11.781520	-26.837630	-19.627490	 9.719750	 0.366161	-0.055937	-17.402440	 1.094420	-0.150562	-15.665960	-15.228620	-11.579430	 1.855435	-1.936839	 0.252425	-14.848120	 1.544302	-0.131170	-9.707406	 67.929320	 50.534360	-46.011260	-1.530752	 0.143885	-10.739480	 1.771128	-0.367736	-23.465510
-1.327803	-0.737965	 0.734560	-37.321540	 26.616080	-159.498800	-10.720570	 6.641762	 41.328790	 12.007860	-1.449231	-5.399811	 0.075152	-0.010359	-15.717460	-1.316754	 0.116744	-10.128760	-7.500547	-8.821713	-10.610370	 1.567566	-0.288428	-20.843010	 2.814888	-0.303150	-12.290930	-26.479720	-19.622760	 9.859727	 0.429641	-0.065607	-17.367410	 1.084497	-0.152512	-16.006080	-15.496500	-11.546210	 2.665586	-2.067092	 0.261823	-14.430160	 1.615017	-0.136372	-9.655980	 69.596030	 49.740440	-46.503970	-1.551392	 0.152700	-11.242850	 1.347797	-0.301557	-25.235990
